<svg version="1.2" xmlns="http://www.w3.org/2000/svg" viewBox="0 0 345 338" width="345" height="338">
	<title>tesla_slide-svg</title>
	<defs>
		<linearGradient id="g1" x1="59" y1="284.9" x2="291" y2="52.9" gradientUnits="userSpaceOnUse">
			<stop offset="0" stop-color="#ffc86b"/>
			<stop offset=".5" stop-color="#e45f9b"/>
			<stop offset="1" stop-color="#6a66cb"/>
		</linearGradient>
	</defs>
	<style>
		.s0 { fill: none;stroke: url(#g1);stroke-linecap: round;stroke-width: 8 } 
	</style>
	<path id="Layer" class="s0" d="m281.7 115.6c0-7.1-1.4-14-4.1-20.5-2.7-6.4-6.6-12.3-11.5-17.3-5-4.9-10.9-8.8-17.3-11.5-6.5-2.7-13.5-4.1-20.5-4.1-21 0-41.8 4.1-61.2 12.2-19.4 8-37.1 19.8-51.9 34.7-14.9 14.8-26.7 32.5-34.7 51.9-8 19.4-12.2 40.2-12.2 61.2 0 14 2.8 27.9 8.1 40.8 5.4 13 13.3 24.8 23.2 34.7 9.9 9.9 21.6 17.7 34.6 23.1 12.9 5.3 26.8 8.1 40.8 8.1 7 0 13.9-1.4 20.4-4.1 6.5-2.6 12.4-6.6 17.3-11.5 5-5 8.9-10.9 11.6-17.3 2.7-6.5 4-13.4 4-20.4 0-21.1-4.1-41.9-12.1-61.3-8.1-19.4-19.8-37-34.7-51.9-14.9-14.9-32.5-26.6-51.9-34.7-19.4-8-40.3-12.2-61.3-12.1-7 0-13.9 1.3-20.4 4-6.5 2.7-12.3 6.6-17.3 11.6-4.9 4.9-8.9 10.8-11.5 17.3-2.7 6.4-4.1 13.4-4.1 20.4 0 21 4.1 41.8 12.2 61.2 8 19.5 19.8 37.1 34.6 52 14.9 14.8 32.5 26.6 52 34.6 19.4 8.1 40.2 12.2 61.2 12.2 14 0 27.9-2.8 40.8-8.1 13-5.4 24.7-13.2 34.6-23.1 10-9.9 17.8-21.7 23.2-34.6 5.3-13 8.1-26.9 8.1-40.9 0-21-4.1-41.8-12.2-61.2-8-19.4-19.8-37.1-34.7-51.9-14.8-14.9-32.5-26.7-51.9-34.7-19.4-8.1-40.2-12.2-61.2-12.2-7 0-14 1.4-20.4 4.1-6.5 2.7-12.4 6.6-17.3 11.5-5 5-8.9 10.9-11.6 17.3-2.7 6.5-4.1 13.4-4.1 20.5 0 21 4.2 41.8 12.2 61.2 8 19.4 19.8 37.1 34.7 51.9 14.8 14.9 32.5 26.7 51.9 34.7 19.4 8 40.2 12.2 61.2 12.2 14 0 27.9-2.8 40.9-8.2 12.9-5.3 24.7-13.2 34.6-23.1 9.9-9.9 17.7-21.6 23.1-34.6 5.4-12.9 8.1-26.8 8.1-40.8 0-7-1.4-14-4.1-20.4-2.6-6.5-6.6-12.4-11.5-17.3-5-5-10.8-8.9-17.3-11.6-6.5-2.7-13.4-4-20.4-4 0 21-4.1 41.8-12.2 61.2-8 19.4-19.8 37.1-34.7 51.9-14.8 14.9-32.5 26.7-51.9 34.7-19.4 8-40.2 12.2-61.2 12.2-14 0-27.9-2.8-40.9-8.1-12.9-5.4-24.7-13.3-34.6-23.2-9.9-9.9-17.7-21.6-23.1-34.6-5.4-12.9-8.1-26.8-8.1-40.8 0-21 4.1-41.8 12.2-61.3 8-19.4 19.8-37 34.6-51.9 14.9-14.8 32.5-26.6 52-34.7 19.4-8 40.2-12.1 61.2-12.1 7 0 13.9 1.4 20.4 4 6.5 2.7 12.4 6.6 17.3 11.6 5 5 8.9 10.8 11.6 17.3 2.7 6.5 4 13.4 4 20.4 0 21-4.1 41.8-12.1 61.3-8.1 19.4-19.8 37-34.7 51.9-14.9 14.8-32.5 26.6-51.9 34.7-19.4 8-40.3 12.1-61.3 12.1-7 0-13.9-1.4-20.4-4-6.5-2.7-12.3-6.6-17.3-11.6-4.9-4.9-8.9-10.8-11.5-17.3-2.7-6.5-4.1-13.4-4.1-20.4 0-14 2.7-27.9 8.1-40.8 5.4-13 13.2-24.7 23.1-34.7 9.9-9.9 21.7-17.7 34.6-23.1 13-5.3 26.9-8.1 40.9-8.1 21 0 41.8 4.1 61.2 12.2 19.4 8 37.1 19.8 51.9 34.7 14.9 14.8 26.7 32.5 34.7 51.9 8.1 19.4 12.2 40.2 12.2 61.2 0 7-1.4 14-4.1 20.4-2.7 6.5-6.6 12.4-11.5 17.3-5 5-10.9 8.9-17.3 11.6-6.5 2.7-13.5 4.1-20.5 4-21 0.1-41.8-4.1-61.2-12.1-19.4-8-37.1-19.8-51.9-34.7-14.9-14.8-26.7-32.5-34.7-51.9-8-19.4-12.2-40.2-12.2-61.3 0-14 2.8-27.8 8.1-40.8 5.4-12.9 13.3-24.7 23.2-34.6 9.9-9.9 21.6-17.7 34.6-23.1 12.9-5.4 26.8-8.1 40.8-8.1 21 0 41.8 4.1 61.2 12.1 19.5 8.1 37.1 19.9 52 34.7 14.8 14.9 26.6 32.5 34.6 51.9 8.1 19.5 12.2 40.3 12.2 61.3 0 7-1.4 13.9-4.1 20.4-2.6 6.5-6.6 12.4-11.5 17.3-5 5-10.8 8.9-17.3 11.6-6.5 2.6-13.4 4-20.4 4-21 0-41.9-4.1-61.3-12.1-19.4-8.1-37-19.9-51.9-34.7-14.9-14.9-26.6-32.5-34.7-51.9-8-19.5-12.1-40.3-12.1-61.3 0-7 1.3-13.9 4-20.4 2.7-6.5 6.6-12.3 11.6-17.3 4.9-5 10.8-8.9 17.3-11.6 6.5-2.6 13.4-4 20.4-4 14 0 27.9 2.7 40.8 8.1 13 5.4 24.7 13.2 34.6 23.1 9.9 9.9 17.8 21.7 23.2 34.6 5.3 13 8.1 26.8 8.1 40.9-21-0.1-41.9 4.1-61.3 12.1-19.4 8-37 19.8-51.9 34.7-14.9 14.8-26.6 32.5-34.7 51.9-8 19.4-12.1 40.2-12.1 61.2-7 0.1-14-1.3-20.4-4-6.5-2.7-12.4-6.6-17.3-11.6-5-4.9-8.9-10.8-11.6-17.3-2.7-6.4-4.1-13.4-4.1-20.4 0-21 4.2-41.8 12.2-61.2 8-19.4 19.8-37.1 34.7-51.9 14.8-14.9 32.5-26.7 51.9-34.7 19.4-8.1 40.2-12.2 61.2-12.2 14 0 27.9 2.8 40.9 8.1 12.9 5.4 24.7 13.2 34.6 23.1 9.9 10 17.7 21.7 23.1 34.7 5.4 12.9 8.1 26.8 8.1 40.8 0 21-4.1 41.8-12.2 61.2-8 19.5-19.8 37.1-34.6 52-14.9 14.8-32.5 26.6-52 34.6-19.4 8.1-40.2 12.2-61.2 12.2-7 0-13.9-1.4-20.4-4.1-6.5-2.6-12.4-6.6-17.3-11.5-5-5-8.9-10.9-11.6-17.3-2.7-6.5-4-13.4-4-20.4 21 0 41.8-4.2 61.2-12.2 19.4-8 37.1-19.8 51.9-34.7 14.9-14.8 26.7-32.5 34.7-51.9 8.1-19.4 12.2-40.2 12.2-61.3z"/>
</svg>